# xmcd
# 
# Track frame offsets:
#     150
#     12675
#     22650
#     35825
#     48292
#     59437
#     70077
#     82820
#     95242
#     107580
#     117747
#     129122
#     140737
#     150082
#     163300
#     175577
#     186652
#     198790
#     212757
#     222805
# 
# Disc length: 3166
# 
# Revision: 9
# Processed by: cddbd v1.5.2PL0 Copyright (c) Steve Scherf et al.
# Submitted via: fre:ac v1.0.31
# 
DISCID=190c5c14
DTITLE=Blues - Living The Blues - Raunchy Blues Classics
DYEAR=1998
DGENRE=Blues
TTITLE0=Work With Me Annie
TTITLE1=Big Ten-Inch Record
TTITLE2=Keep On Churnin'
TTITLE3=Whole Lotta Shaken Goin' On
TTITLE4=Butcher Pete (Part 1)
TTITLE5=Laundromat Blues
TTITLE6=TV Mama
TTITLE7=(I Love to Play Your Piano) Let Me Bang Your Box
TTITLE8=Rocket 69
TTITLE9=My Ding-A-Ling
TTITLE10=Sixty-Minute Man
TTITLE11=It Ain't The Meat
TTITLE12=They Call Me Big Mama
TTITLE13=The Walkin' Blues (Walk Right In, Walk Right Out)
TTITLE14=I Like My Baby's Pudding
TTITLE15=Mother Fuyer
TTITLE16=Hip Shaken Mama
TTITLE17=Use What You've Got
TTITLE18=Can't Stop Loving You
TTITLE19=Baby Let's Go Down To the Woods
EXTD=YEAR: 1998
EXTT0=
EXTT1=
EXTT2=
EXTT3=
EXTT4=
EXTT5=
EXTT6=
EXTT7=
EXTT8=
EXTT9=
EXTT10=
EXTT11=
EXTT12=
EXTT13=
EXTT14=
EXTT15=
EXTT16=
EXTT17=
EXTT18=
EXTT19=
PLAYORDER=
